<svg width="40" height="40" viewBox="0 0 40 40" fill="none" xmlns="http://www.w3.org/2000/svg">
  <rect width="40" height="40" rx="8" fill="#2E8B57"/>
  <path d="M12 8C9.79086 8 8 9.79086 8 12V28C8 30.2091 9.79086 32 12 32H28C30.2091 32 32 30.2091 32 28V12C32 9.79086 30.2091 8 28 8H12Z" fill="white"/>
  <path d="M20 12L26 18H22V26H18V18H14L20 12Z" fill="#2E8B57"/>
  <circle cx="20" cy="28" r="2" fill="#FF6B35"/>
  <path d="M16 14H24V16H16V14Z" fill="#4A90E2"/>
  <path d="M16 20H24V22H16V20Z" fill="#4A90E2"/>
</svg>
